HIERARCHY
ROOT Hips
{
	OFFSET 0.00000 0.00000 0.00000
	CHANNELS 6 Xposition Yposition Zposition Yrotation Zrotation Xrotation 
	JOINT Lumbar
	{
		OFFSET 0 0 0
		CHANNELS 3 Zrotation Xrotation Yrotation
		JOINT Neck
		{
			OFFSET 0.00 0.2701 0.00
			CHANNELS 3 Zrotation Xrotation Yrotation
			End Site
			{
				OFFSET 0.00 0.1379 0.00
			}
		}
		JOINT RightShoulder
		{
			OFFSET 0.0119 0.2289 0.1181
			CHANNELS 3 Zrotation Xrotation Yrotation
			JOINT RightElbow
			{
				OFFSET 0.00 -0.1475 0.00
				CHANNELS 2 Zrotation Yrotation
				JOINT RightWrist
				{
					OFFSET 0.00 -0.1605 0.00
					CHANNELS 2 Zrotation Xrotation
					End Site
					{
						OFFSET 0.0040 -0.1068 0.0006
					}
				}
			}
		}
		JOINT LeftShoulder
		{
			OFFSET 0.0119 0.2289 -0.1181
			CHANNELS 3 Zrotation Xrotation Yrotation
			JOINT LeftElbow
			{
				OFFSET 0.00 -0.1475 0.00
				CHANNELS 2 Zrotation Yrotation
				JOINT LeftWrist
				{
					OFFSET 0.00 -0.1605 0.00
					CHANNELS 2 Zrotation Xrotation
					End Site
					{
						OFFSET 0.0040 -0.1068 -0.0006
					}
				}
			}
		}
	}
	JOINT RightHip
	{
		OFFSET 0.0316 -0.0424 0.0458
		CHANNELS 3 Zrotation Xrotation Yrotation
		JOINT RightKnee
		{
			OFFSET 0.00 -0.2438 0.00
			CHANNELS 1 Zrotation
			JOINT RightAnkle
			{
				OFFSET 0.00 -0.2449 0.00
				CHANNELS 3 Zrotation Xrotation Yrotation
				End Site
				{
					OFFSET 0.1237 -0.0542 0.0051
				}
			}
		}
	}
	JOINT LeftHip
	{
		OFFSET 0.0316 -0.0424 -0.0458
		CHANNELS 3 Zrotation Xrotation Yrotation
		JOINT LeftKnee
		{
			OFFSET 0.00 -0.2438 0.00
			CHANNELS 1 Zrotation
			JOINT LeftAnkle
			{
				OFFSET 0.00 -0.2449 0.00
				CHANNELS 3 Zrotation Xrotation Yrotation
				End Site
				{
					OFFSET 0.1237 -0.0542 -0.0051
				}
			}
		}
	}
}
MOTION
Frames: 28
Frame Time: 0.02
-0.4497 -0.00439 -0.02536 264.61549 -65.66087 -0.7003 40.47479 1.31168 4.22781 6.33195 -1.78213 -0.83079 45.96102 -24.32398 57.80444 38.72759 19.82143 37.42199 -13.3688 45.41307 26.13343 -63.57801 47.7103 0.56663 36.68334 22.97165 70.04597 7.20595 -13.17502 -13.95476 -7.11869 -3.84546 -2.69408 58.77558 16.9808 0.67719 -7.4314 -16.28302 5.26197 4.0189
-0.44981 -0.0043 -0.02478 265.00462 -66.15204 -0.3764 40.20173 1.23668 4.14865 6.21674 -1.84611 -0.83079 46.08369 -24.38414 57.81965 38.79818 19.85319 37.54019 -13.36024 45.04245 26.14287 -63.30051 47.81651 0.56887 36.8924 22.973 70.51967 7.13124 -12.69825 -13.95664 -7.15637 -3.91229 -2.73074 59.20731 16.94006 1.01675 -7.31984 -16.26574 5.22563 3.99557
-0.44989 -0.00424 -0.02412 265.4507 -66.61383 -0.00942 39.93215 1.17658 4.06309 6.0999 -1.90958 -0.83079 46.21664 -24.41958 57.82465 38.78456 19.91526 37.68862 -13.33911 44.70578 26.03539 -62.9745 47.77241 0.56779 37.13332 22.97233 70.96351 7.06071 -12.05063 -13.97367 -7.19847 -4.00387 -2.7801 59.5851 16.90751 1.45907 -7.18623 -16.23381 5.18134 3.96677
-0.44999 -0.00417 -0.02348 265.86922 -67.08624 0.33768 39.66313 1.11063 3.98244 5.98488 -1.97346 -0.83079 46.34382 -24.46464 57.83384 38.80584 19.96155 37.81702 -13.32452 44.35807 25.97923 -62.67151 47.79429 0.56766 37.35101 22.97219 71.4158 6.98513 -11.50853 -13.98371 -7.23653 -4.08028 -2.82156 59.98444 16.86861 1.84128 -7.06384 -16.21001 5.14175 3.94121
-0.45009 -0.0041 -0.02291 266.29509 -67.57149 0.68614 39.38387 1.04097 3.89277 5.86526 -2.03675 -0.83079 46.47806 -24.51632 57.84466 38.84045 20.01743 37.97357 -13.30594 43.99203 25.92952 -62.36262 47.82391 0.56762 37.60847 22.97219 71.89158 6.92202 -10.85441 -13.99407 -7.283 -4.17246 -2.87157 60.39776 16.84088 2.28339 -6.93495 -16.17984 5.09749 3.9124
-0.45017 -0.00403 -0.02218 266.71977 -68.02169 1.04246 39.12712 0.98252 3.82037 5.75532 -2.10107 -0.83079 46.59857 -24.54747 57.84963 38.82637 20.05977 38.0776 -13.29306 43.67236 25.83748 -62.05579 47.79943 0.56721 37.78762 22.97193 72.30958 6.83421 -10.38858 -14.00766 -7.31313 -4.23821 -2.90707 60.76863 16.79171 2.62526 -6.8171 -16.15915 5.06106 3.88903
-0.45018 -0.00397 -0.0211 267.1176 -68.3918 1.40316 38.93309 0.95105 3.80043 5.66685 -2.16836 -0.83079 46.68548 -24.53956 57.84454 38.71392 20.05798 38.03479 -13.29804 43.46945 25.67598 -61.75783 47.69869 0.56752 37.76498 22.97194 72.5873 6.67767 -10.51415 -14.02336 -7.29604 -4.22185 -2.89759 61.03699 16.68275 2.64787 -6.71363 -16.17226 5.04867 3.88261
-0.45017 -0.00391 -0.01986 267.51323 -68.72547 1.77093 38.76146 0.93033 3.79785 5.58922 -2.23662 -0.83079 46.75676 -24.50989 57.83469 38.55267 20.03889 37.93696 -13.31039 43.3122 25.47221 -61.46456 47.54173 0.56626 37.65703 22.97166 72.80503 6.49616 -10.83001 -14.04228 -7.26247 -4.17858 -2.87336 61.26557 16.55191 2.5684 -6.62958 -16.19444 5.04436 3.88174
-0.45016 -0.00385 -0.01867 267.91686 -69.06994 2.14051 38.57897 0.90491 3.78505 5.5102 -2.30451 -0.83079 46.83039 -24.48276 57.82292 38.40417 20.03022 37.86039 -13.31876 43.13633 25.27664 -61.17612 47.38871 0.56741 37.57494 22.97168 73.04298 6.32588 -11.03775 -14.06178 -7.23723 -4.14988 -2.85717 61.50909 16.42991 2.54658 -6.54587 -16.21028 5.03602 3.87797
-0.45017 -0.0038 -0.01756 268.29569 -69.43909 2.49259 38.39976 0.87941 3.78092 5.41597 -2.37234 -0.83079 46.92421 -24.48569 57.82226 38.29317 20.02167 37.80036 -13.32531 42.95397 25.12593 -60.86009 47.32557 0.56744 37.55322 22.97177 73.31189 6.15623 -11.32737 -14.07339 -7.20895 -4.11263 -2.83604 61.75745 16.31195 2.48171 -6.40755 -16.23617 5.02887 3.87565
-0.45014 -0.00373 -0.01625 268.72147 -69.74681 2.87949 38.2186 0.85624 3.7641 5.35633 -2.44021 -0.83079 46.97248 -24.42126 57.8047 38.09271 19.99604 37.69282 -13.34262 42.79388 24.87013 -60.59886 47.05881 0.5617 37.37913 22.97058 73.49962 5.97929 -11.49833 -14.10178 -7.1826 -4.08587 -2.82116 61.9952 16.18137 2.47989 -6.40691 -16.24197 5.02132 3.87166
-0.45006 -0.00364 -0.01444 269.30538 -69.90864 3.38364 38.03013 0.8382 3.69877 5.38669 -2.51064 -0.83079 46.89417 -24.17578 57.67748 37.66552 20.03936 37.45934 -13.34261 42.69737 24.36209 -60.52293 46.28811 0.5756 36.84353 22.97251 73.50147 5.78834 -11.25616 -14.17753 -7.16925 -4.09977 -2.83038 62.14374 16.01163 2.6851 -6.61911 -16.20204 5.00978 3.86181
-0.44993 -0.00354 -0.01243 269.93039 -70.007 3.91769 37.83827 0.82169 3.62218 5.45193 -2.58052 -0.83079 46.77039 -23.86363 57.54375 37.1493 20.04972 37.17823 -13.3603 42.61857 23.7452 -60.49369 45.30745 0.55536 36.1419 22.96992 73.41896 5.591 -10.89526 -14.26965 -7.15774 -4.12412 -2.84576 62.29662 15.83161 2.95524 -6.99971 -16.13883 4.99753 3.84993
-0.44982 -0.00345 -0.0105 270.51885 -70.12522 4.42336 37.6456 0.80368 3.55637 5.50323 -2.64896 -0.83079 46.67167 -23.58218 57.45729 36.66818 19.99566 36.92805 -13.40138 42.5234 23.16063 -60.42277 44.39369 0.55545 35.50149 22.9677 73.36037 5.39643 -10.61617 -14.35304 -7.1429 -4.14011 -2.85608 62.493 15.66269 3.18994 -7.40993 -16.07925 4.98654 3.83915
-0.44974 -0.00335 -0.00862 271.18562 -70.28126 4.99342 37.46359 0.78994 3.46583 5.54729 -2.72478 -0.83079 46.55789 -23.29756 57.19057 36.20604 20.25696 36.64941 -13.3157 42.46694 22.64688 -60.44644 43.59585 0.62483 34.9523 22.98094 73.3625 5.20112 -10.22954 -14.44201 -7.13782 -4.17017 -2.87528 62.49448 15.46621 3.44632 -7.37257 -16.05175 4.97284 3.82852
-0.44958 -0.00325 -0.00658 271.69542 -70.34247 5.43427 37.25835 0.76689 3.42567 5.61401 -2.78484 -0.83079 46.4598 -23.00485 57.28908 35.68626 19.87798 36.40363 -13.49102 42.33097 21.96038 -60.27403 42.51051 0.42935 34.13205 22.95044 73.21643 5.00667 -10.03185 -14.52319 -7.11329 -4.17406 -2.87783 62.90532 15.32453 3.67414 -8.30729 -15.94873 4.96326 3.81612
-0.44929 -0.00315 -0.00419 271.79133 -70.1697 5.52769 36.98942 0.72333 3.51237 5.7402 -2.80333 -0.83079 46.45853 -22.69751 58.46954 35.00735 17.55146 36.39043 -14.44165 41.99136 20.82397 -59.63531 40.65811 0.52109 32.99077 22.89192 72.70261 4.81254 -10.42109 -14.57904 -7.03279 -4.10081 -2.83125 64.42836 15.34081 3.80934 -11.87577 -15.67034 4.97628 3.80727
-0.44892 -0.00306 -0.00162 271.72142 -69.90146 5.48607 36.69748 0.66933 3.65299 5.88732 -2.80548 -0.83079 46.46597 -22.38497 60.0021 34.27676 14.63061 36.38427 -15.64175 41.5666 19.51815 -58.78181 38.52948 0.19259 31.52533 22.77399 72.0386 4.62061 -10.99627 -14.62639 -6.93307 -4.00153 -2.76811 66.36513 15.41205 3.91412 -16.41175 -15.31247 4.99156 3.79537
-0.44854 -0.00297 0.0009 271.70915 -69.66915 5.49631 36.41584 0.61628 3.77857 6.02079 -2.8141 -0.83079 46.44276 -22.08197 61.32934 33.58574 12.08741 36.29437 -16.69093 41.16796 18.28913 -57.96941 36.54247 -0.6489 29.9364 22.62117 71.43047 4.42977 -11.46248 -14.67758 -6.84341 -3.91566 -2.71362 68.12587 15.45535 4.03136 -20.51918 -14.97183 4.99829 3.77939
-0.44833 -0.00285 0.00327 271.7768 -69.4665 5.55106 36.13356 0.57894 3.86339 6.17139 -2.82738 -0.83079 46.53399 -21.75081 62.85711 32.82811 9.03235 36.5577 -17.9056 40.82515 17.05484 -57.3958 34.47618 1.34178 29.4246 22.72307 70.87313 4.2286 -12.03052 -14.72969 -6.74817 -3.82299 -2.6544 69.8423 15.51025 4.1547 -24.61262 -14.70654 5.03598 3.78571
-0.44776 -0.00279 0.006 271.63346 -69.17971 5.47648 35.8487 0.50683 4.04657 6.2928 -2.82629 -0.83079 46.3853 -21.47231 64.03898 32.19256 6.97372 36.06894 -18.82664 40.343 15.79552 -56.27497 32.51721 -2.49192 26.67015 22.28842 70.17354 4.05117 -12.42897 -14.77736 -6.66002 -3.73875 -2.60129 71.74146 15.55487 4.2596 -28.92873 -14.27026 5.01072 3.74577
-0.44624 -0.00289 0.00957 270.98642 -68.68838 5.11277 35.55021 0.33765 4.48335 6.31156 -2.79591 -0.83079 45.60724 -21.38894 64.27817 31.95597 7.17757 33.67296 -18.94567 39.51785 14.48542 -53.67823 30.87954 -23.81917 17.14533 20.31612 69.13376 3.92464 -12.34281 -14.81695 -6.59551 -3.67914 -2.56662 74.11027 15.55153 4.29766 -33.91808 -13.34266 4.80257 3.57126
-0.44437 -0.00306 0.01353 270.12506 -68.11504 4.61672 35.25269 0.13464 5.01788 6.30337 -2.75023 -0.83079 44.58047 -21.34988 64.13651 31.83606 8.50382 30.4967 -18.74897 38.55074 13.16111 -50.54026 29.36815 -50.72356 5.49271 17.81827 67.95306 3.82443 -12.07602 -14.85168 -6.53885 -3.62963 -2.53901 76.6359 15.53689 4.31994 -39.04506 -12.2532 4.53262 3.35172
-0.44265 -0.00321 0.01738 269.33686 -67.57683 4.15836 34.96207 -0.05065 5.5113 6.31827 -2.70765 -0.83079 43.64542 -21.25928 64.10734 31.62995 9.75722 27.55468 -18.64898 37.63564 11.8587 -47.66241 27.82827 -74.06573 -4.74702 15.60842 66.82747 3.72165 -11.87167 -14.8875 -6.47906 -3.57896 -2.50989 79.04676 15.53185 4.36741 -43.91104 -11.2631 4.29653 3.15775
-0.44098 -0.00328 0.0209 268.64654 -67.0448 3.7907 34.63762 -0.24673 5.99397 6.28753 -2.68165 -0.83079 42.80307 -21.30165 64.35525 31.55888 9.22414 25.08571 -18.74891 36.77308 10.48402 -44.72114 26.15767 -101.7085 -16.85791 13.19241 65.73603 3.57994 -11.75122 -14.92873 -6.41693 -3.51362 -2.47339 81.65739 15.51093 4.34732 -49.63692 -10.16068 4.03603 2.94209
-0.43911 -0.00354 0.02523 267.70194 -66.48102 3.20372 34.3867 -0.42757 6.51983 6.34595 -2.61661 -0.83079 41.7054 -21.07692 63.91975 31.23887 12.58573 21.49033 -18.36206 35.76511 9.26008 -41.7815 24.79162 -121.77878 -25.60108 11.07742 64.53976 3.52474 -11.4176 -14.95643 -6.36156 -3.4807 -2.45371 83.88167 15.51834 4.45262 -53.6066 -9.25556 3.81179 2.76101
-0.43682 -0.00423 0.03156 266.12467 -65.85675 2.05233 34.31784 -0.56401 7.15472 6.65027 -2.45759 -0.83079 39.98981 -20.11197 61.79102 30.17056 27.30231 14.59227 -16.63909 34.42046 8.4462 -39.02281 24.24843 -118.99562 -24.27288 9.96111 63.10908 3.7078 -10.47893 -14.95804 -6.32548 -3.54255 -2.48279 85.01408 15.61777 5.0147 -52.55924 -8.92866 3.70184 2.68601
-0.43433 -0.00512 0.03871 264.29827 -65.20314 0.68535 34.32734 -0.68292 7.82631 7.04631 -2.25859 -0.83079 38.0213 -18.87659 58.97192 28.85468 45.744 6.65699 -14.44876 32.93005 7.78768 -36.2793 24.0059 -108.50177 -19.52602 9.15985 61.57541 3.97516 -9.34192 -14.94424 -6.29579 -3.63552 -2.52798 85.74614 15.74349 5.68656 -49.75938 -8.80718 3.63082 2.64752
